<svg xmlns="http://www.w3.org/2000/svg" width="529" height="202" viewBox="261 408 529 202"><path fill="#5fbf56" d="m378.313 461.75 3.8.11L385 462l2 4h2l2 8 2.307.06c3.46.095 6.92.205 10.38.315 1.199.03 2.397.062 3.631.094l3.506.117 3.222.095c3.253.351 6.557.922 8.954 3.319 1.137 12.408 1.137 12.408-2.187 17.063L418 497l-2.687 2.813C413 502 413 502 411 502l-2 6h-2c-1.769 9.682-1.769 9.682 0 19 5.985 0 8.986-3.251 13.145-7.09 1.916-1.78 1.916-1.78 2.855-3.91h2l1-4h2l-.125-2.875c-.02-4.832 1.067-9.431 2.125-14.125h2l.184-1.828.253-2.422.247-2.39c.292-2.184.737-4.237 1.316-6.36h2l-.312-2.687c.312-3.313.312-3.313 2.5-6.125 5.64-4.387 12.435-3.556 19.25-2.813L460 471c1.495 2.99 1.116 5.7 1 9l-1 3h-2l-2 11h-2l-.437 3.688c-.39 3.139-.887 6.22-1.563 9.312h-2a922 922 0 0 0-.562 6.625l-.317 3.727c-.113 3.404.189 6.324.879 9.648l3.313-1.437A80 80 0 0 1 460 523c1.219-2.504 1.219-2.504 2-5h2l2-8h2l2-11h2l.184-1.828.253-2.422.247-2.39c.292-2.184.737-4.237 1.316-6.36h2l.113-2.3.2-3.012.175-2.989c.567-2.991 1.12-3.896 3.512-5.699 5.998-2.78 12.862-3.004 19.125-1l1.875 1q.04 2.125.063 4.25l.035 2.39c-.094 2.267-.466 4.189-1.098 6.36h-2l-.184 1.863-.253 2.45-.247 2.425C497 494 497 494 496 497h-2l-.184 1.828-.253 2.422-.247 2.39c-.292 2.184-.737 4.237-1.316 6.36h-2v17c5.783-.797 5.783-.797 9.813-3.875l1.769-1.555c1.66-1.627 1.66-1.627 2.418-4.57l-3-1-1-6h-2v-5h2l.188-2c1.565-5.782 5.193-11.177 9.812-15h2l.813-1.82c5.354-9.829 18.943-14.721 28.792-18.2 18.177-5.25 35.368-1.259 51.688 7.336 4.34 2.7 8.299 5.862 11.707 9.684v2l3 1c3.083 3.372 5.04 6.894 7 11l1 1 1-7h2l.184-2.047.254-2.703c.08-.882.162-1.763.246-2.672A44 44 0 0 1 621 479h2l.25-2.875c.75-3.125.75-3.125 2.465-4.273 6.679-2.49 13.704-2.427 20.285.148 1 1 1 1 1.25 4.063-.247 3.883-1.008 6.514-2.496 10.042-.773 1.943-1.289 3.859-1.754 5.895h-2l-2 10h-2c-.196 3.625-.38 7.25-.562 10.875l-.17 3.129-.147 2.988-.143 2.761c-.142 2.285-.142 2.285 1.022 4.247l2.813-.937L646 523c1.219-2.504 1.219-2.504 2-5h2l2-7h2l2-8h2l.184-1.758c.476-4.443 1.026-8.841 1.816-13.242h2l.113-2.012c.673-9.032.673-9.032 3.887-12.988 3.418-2.278 5.265-2.433 9.313-2.75l3.363-.297c3.51.05 6.075.769 9.324 2.047-.964 10.558-.964 10.558-2 15h-2l-.437 3.75c-.35 2.815-.767 5.52-1.563 8.25h-2l-.113 2.09c-.39 5.577-1.186 10.39-3.121 15.629-1.342 3.997-2.03 8.136-2.766 12.281h-2v3c4.505-1.502 6.975-4.916 10.188-8.312C684 522 684 522 686 522l2-5h2l2-8h2l.184-2.3.254-3.012c.08-.987.162-1.973.246-2.989C695 498 695 498 696 495h2l.184-2.012c.832-8.77.832-8.77 1.816-12.988h2l.188-2.812C703 474 703 474 705.074 472.316c3.699-1.664 6.508-1.646 10.551-1.566 1.312.015 2.625.03 3.977.047C723 471 723 471 726 472c.845 3.378 1.108 5.675 0 9h-2l-.437 3.75c-.35 2.815-.767 5.52-1.563 8.25h-2l-2 12h-2c-.912 7.358-1.115 14.59-1 22 5.314-1.924 5.314-1.924 9-6h2l2-5h2l2-8h2l2-9h2l.438-3.562.289-2.231c.23-1.857.413-3.72.586-5.582 1.058-5.582 2.317-11.642 6.816-15.406 3.72-1.58 7.094-1.584 11.058-1.469l2.194.016c5.308.079 5.308.079 7.619 1.234.293 5.694-.704 10.22-2.437 15.625q-.69 2.206-1.372 4.414l-.64 2.067c-.662 2.275-1.15 4.56-1.551 6.894h-2l-.184 2.012c-.832 8.77-.832 8.77-1.816 12.988h-2l-.184 2.082-.254 2.73c-.08.894-.162 1.787-.246 2.708C754 526 754 526 753 529h-2v4c3.395-2.847 6.747-5.672 9.813-8.875C763 522 763 522 765 522l2-4h2l2-6h2l2-4 8 1v2h2v9h-2l-2 6h-2l-2 5h-2l-2 4h-2l-1 3c-2.328 1.684-2.328 1.684-5.25 3.438-2.955 1.784-5.717 3.535-8.41 5.699C754 549 754 549 750.812 550.375c-3.099 1.417-3.099 1.417-4.187 4.813L746 558h-2l-.437 3.25c-.4 2.667-.839 5.164-1.563 7.75h-2l-2 9h-2l-.437 2.313C735 583 735 583 734 586h-2l-2 6h-2l-.75 2.313c-1.371 2.948-2.485 4.045-5.25 5.687h-2v2q-1.871.975-3.75 1.938l-2.11 1.09c-4.062 1.845-7.625 2.131-12.077 2.16l-3.09.042c-5.426-.42-8.993-2.591-12.973-6.23v-2h-2a37.76 37.76 0 0 1 0-24h2l.188-2.125c1.813-6.415 7.428-10.484 12.625-14.25l1.95-1.426c7.69-5.456 16.067-9.43 24.647-13.281 1.813-.817 1.813-.817 2.34-3.043L728 539h2v-4l-1.398 1.39c-6.399 6.02-12.873 9.69-21.79 10.11-4.952-.218-7.83-1.575-11.812-4.5-3-3.29-3-3.29-3-6h-2v2h-2v2c-13.645 11-13.645 11-20 11l-2 10h-2l-.437 3.25c-.4 2.667-.839 5.164-1.563 7.75h-2l-.297 1.723c-1.066 5.506-2.686 9.55-5.703 14.277h-2l-.437 1.875C651 592 651 592 650 594h-2l-.625 1.688c-3.559 5.985-9.05 8.457-15.441 10.582-7.712 1.92-14.04 1.275-21.157-2.2C609 603 609 603 607 601v-3h-2c-1.235-3.704-1.146-7.144-1.125-11l-.012-2.195c.006-3.198.119-5.75 1.137-8.805h2l.188-2.625c1.732-7.195 7.762-11.17 13.562-15.187l2.225-1.558c8.29-5.681 17.448-11.438 27.025-14.63l1-6h-3l-.691 1.797c-2.644 4.45-7.633 6.372-12.309 8.203-6.55 1.093-12.29.401-18-3-1.437-2.187-1.437-2.187-2-4h-2c-1.105-3.315-1.321-6.204-1.562-9.687l-.254-3.575L611 523h-2l-2 5h-2c-.235.745-.47 1.49-.71 2.258-4.275 9.093-17.398 13.582-26.34 17.05-6.072 2.152-11.766 3.055-18.2 3.005l-2.239-.013c-6.478-.132-12.36-1.229-18.511-3.3l-2.64-.879c-5.916-2.168-11.525-5.033-16.36-9.121v-2l-4-2v-2c-3.417 1.139-4.304 2.587-6.492 5.313-5.736 6.42-12.587 10.206-21.102 11.039-11.277.421-11.277.421-15.719-2.602-3.503-3.585-4.62-5-4.812-10L468 532c-2.784 1.392-2.979 3.156-4 6h-2v2c-2.047 1.473-2.047 1.473-4.75 3.063l-2.672 1.597c-5.58 2.9-11.39 2.978-17.578 2.34-3.563-1.22-6.201-2.889-8.437-6-.563-2-.563-2-.563-6h-3v3c-7.787 6.749-16.926 9.773-27.203 9.387-5.625-.778-9.304-3.243-13.735-6.637-2.767-3.69-2.83-6.186-3.062-10.75h-2v-6h2c.09-1.156.09-1.156.184-2.336l.253-3.039.247-3.023C382 513 382 513 383 511h2l.438-2.312C386 506 386 506 387 503h2l2-5h2v-2l-10-2-.437 3.813c-.3 2.614-.721 4.661-1.563 7.187h-2l-1 7-3 1c-.672 1.936-.672 1.936-1 4l-1 2h-2l-.812 1.875C369 523 369 523 366 525c-6.333.333-6.333.333-9-1v-2h-2v-6h2l.438-1.875C358 512 358 512 359 510h2l.438-2.312C362 505 362 505 363 502h2l.438-3.25c.562-3.75.562-3.75 1.25-5.875.449-2.697-.545-4.455-1.688-6.875h-2v-15h2l.188-2.25c1.944-6.58 6.955-7.23 13.125-7M551 496c-2.54 2.338-2.54 2.338-4 5v3h-2v8h2l.188 2.25c1.068 3.618 2.72 4.688 5.812 6.75 3.62 1.206 6.192 1.323 10 1 3.422-1.724 3.422-1.724 6-4v-2h2c1.262-2.525 1.099-4.312 1.063-7.125l-.028-2.758L572 504l-7-2-2-9c-4.622 0-7.915.882-12 3m163.938 69.875-2.786 2.18L710 570v2l-3 1c-4.22 4.096-4.722 7.343-5 13l1 2c3.742-.506 5.557-1.113 8-4l1.563-1.375C715.15 579.7 716 576.86 716 573h2l2-8h2l-1-3c-2.182 0-4.47 2.616-6.062 3.875M635 567v2l-1.75.75c-2.58 1.433-4.311 3.034-6.25 5.25v2h-2a442 442 0 0 0-1.062 4.375l-.598 2.46c-.561 2.207-.561 2.207.66 4.165 3.805-.514 5.495-1.118 8-4a145 145 0 0 0 3.625-5.375l1.852-2.836c1.466-2.684 2.118-4.78 2.523-7.789h2l1-5c-3.932 0-5.164 1.394-8 4"/><path fill="#e6e6e6" d="m378.313 461.75 3.8.11L385 462l2 4h2l2 8 2.307.06c3.46.095 6.92.205 10.38.315 1.199.03 2.397.062 3.631.094l3.506.117 3.222.095c3.253.351 6.557.922 8.954 3.319 1.137 12.408 1.137 12.408-2.187 17.063L418 497l-2.687 2.813C413 502 413 502 411 502l-2 6h-2c-1.769 9.682-1.769 9.682 0 19 5.985 0 8.986-3.251 13.145-7.09 1.916-1.78 1.916-1.78 2.855-3.91h2l1-4h2l-.125-2.875c-.02-4.832 1.067-9.431 2.125-14.125h2l.184-1.828.253-2.422.247-2.39c.292-2.184.737-4.237 1.316-6.36h2l-.312-2.687c.312-3.313.312-3.313 2.5-6.125 5.64-4.387 12.435-3.556 19.25-2.813L460 471c1.495 2.99 1.116 5.7 1 9l-1 3h-2l-2 11h-2l-.437 3.688c-.39 3.139-.887 6.22-1.563 9.312h-2a922 922 0 0 0-.562 6.625l-.317 3.727c-.113 3.404.189 6.324.879 9.648l3.313-1.437A80 80 0 0 1 460 523c1.219-2.504 1.219-2.504 2-5h2l2-8h2l2-11h2l.184-1.828.253-2.422.247-2.39c.292-2.184.737-4.237 1.316-6.36h2l.113-2.3.2-3.012.175-2.989c.567-2.991 1.12-3.896 3.512-5.699 5.998-2.78 12.862-3.004 19.125-1l1.875 1q.04 2.125.063 4.25l.035 2.39c-.094 2.267-.466 4.189-1.098 6.36h-2l-.184 1.863-.253 2.45-.247 2.425C497 494 497 494 496 497h-2l-.184 1.828-.253 2.422-.247 2.39c-.292 2.184-.737 4.237-1.316 6.36h-2v17l8 1 1-3a210 210 0 0 1 5-4l1-2c3.873 1.291 5.939 3.839 8.129 7.14.871 1.86.871 1.86.683 4.86-4.719 7.812-13.275 13.142-21.812 16-13.906 1.465-13.906 1.465-19.312-2.25-3.504-3.585-4.62-5-4.813-10L468 532c-2.784 1.392-2.979 3.156-4 6h-2v2c-2.047 1.473-2.047 1.473-4.75 3.063l-2.672 1.597c-5.58 2.9-11.39 2.978-17.578 2.34-3.563-1.22-6.201-2.889-8.437-6-.563-2-.563-2-.563-6h-3v3c-7.787 6.749-16.926 9.773-27.203 9.387-5.625-.778-9.304-3.243-13.735-6.637-2.767-3.69-2.83-6.186-3.062-10.75h-2v-6h2c.09-1.156.09-1.156.184-2.336l.253-3.039.247-3.023C382 513 382 513 383 511h2l.438-2.312C386 506 386 506 387 503h2l2-5h2v-2l-10-2-.437 3.813c-.3 2.614-.721 4.661-1.563 7.187h-2l-1 7-3 1c-.672 1.936-.672 1.936-1 4l-1 2h-2l-.812 1.875C369 523 369 523 366 525c-6.333.333-6.333.333-9-1v-2h-2v-6h2l.438-1.875C358 512 358 512 359 510h2l.438-2.312C362 505 362 505 363 502h2l.438-3.25c.562-3.75.562-3.75 1.25-5.875.449-2.697-.545-4.455-1.688-6.875h-2v-15h2l.188-2.25c1.944-6.58 6.955-7.23 13.125-7"/><path fill="#ebebeb" d="m404.375 417.875 2.648.055L409 418c2.298 4.595 1.246 11.172 0 16h-2l-.238 1.832c-1.02 2.902-2.266 3.43-4.95 4.856l-2.292 1.261c-5.472 2.282-11.138 2.189-16.98 2.149l-2.397-.005c-2.506-.005-5.012-.018-7.518-.03q-2.56-.009-5.121-.014-6.252-.017-12.504-.049l-2 8h-2l-.078 1.73c-.451 6.446-1.955 12.164-3.985 18.29A63 63 0 0 0 345 480h-2l-.184 2.047-.253 2.703-.247 2.672A44 44 0 0 1 341 494h-2l-.184 1.977c-.451 4.71-.958 9.365-1.816 14.023h-2l-.184 2.414c-.832 10.524-.832 10.524-1.816 15.586h-2l.07 1.688c.13 5.483-.034 10.177-2.07 15.312-5.833 4.148-13.08 3.654-20 3-3.34-.895-3.34-.895-6-2-2.985-5.97-.496-14.821 1-21q.99-2.505 2-5c.41-1.595.788-3.2 1.125-4.812l.508-2.395L308 511h2c.09-.978.09-.978.184-1.977.451-4.71.958-9.365 1.816-14.023h2l.113-1.871c.477-6.143 1.749-11.373 3.887-17.129 1.953-5.62 3.631-11.21 5-17h2l.184-2.082.253-2.73.247-2.708C326 449 326 449 327 446h2v-4q-5.865-.112-11.731-.165a707 707 0 0 1-5.906-.099c-8.274-.063-15.45.879-23.363 3.264l-4 1v10l2.117.621 2.758.817 2.742.808C294 459 294 459 296 460v2l2 1h-2l-.187 2.563c-.994 4.205-2.835 7.3-5.813 10.437h-2l-1 3c-5.678 1.301-9.833.93-15-2-8.133-5.718-8.133-5.718-9.79-10.078-.272-1.922-.272-1.922-.21-4.922h-2c-1.023-3.379-1.134-6.479-1.125-10l-.008-3.125c.114-2.472.42-4.52 1.133-6.875h2l.188-2.625c1.312-5.453 3.756-8.095 8.39-10.98 11.53-6.113 23.658-8.542 36.652-8.563l2.365-.012q3.797-.013 7.592-.007l2.622-.003c12.411.001 24.7.382 37.07 1.478 9.872.874 19.73 1.342 29.558-.163l3.372-.492c3.21-.561 3.21-.561 6.265-1.695 2.967-.951 5.205-1.147 8.301-1.063"/><path fill="#f5f9f3" d="M592 486c6.926 5.515 15.473 12.623 19 21-1.226 4.532-3.965 7.544-7.125 10.875l-1.507 1.6A478 478 0 0 1 598 524l-2.012 2.09c-11.264 10.775-25.615 14.366-40.742 14.344C539.054 540.054 524.937 530.4 514 519c-7.121-8.54-7.121-8.54-6.828-12.066 5.722-13.36 20.242-24.09 33.277-29.317 17.905-5.734 36.131-2.175 51.551 8.383m-41 10c-2.54 2.338-2.54 2.338-4 5v3h-2v8h2l.188 2.25c1.068 3.618 2.72 4.688 5.812 6.75 3.62 1.206 6.192 1.323 10 1 3.422-1.724 3.422-1.724 6-4v-2h2c1.262-2.525 1.099-4.312 1.063-7.125l-.028-2.758L572 504l-7-2-2-9c-4.622 0-7.915.882-12 3"/><path fill="#5dbe51" d="M575.14 483.387c6.685 5.8 11.276 11.523 12.137 20.504.314 9.984-2.028 16.395-8.304 24.125-6.436 6.473-14.7 7.372-23.42 7.44-6.625-.142-10.772-1.738-15.553-6.456l-1.762-1.676c-5.218-5.496-7.358-11.162-7.613-18.699.27-8.145 1.989-15.085 7.695-21.09 9.396-8.587 25.668-11.82 36.82-4.148M551 496c-2.54 2.338-2.54 2.338-4 5v3h-2v8h2l.188 2.25c1.068 3.618 2.72 4.688 5.812 6.75 3.62 1.206 6.192 1.323 10 1 3.422-1.724 3.422-1.724 6-4v-2h2c1.262-2.525 1.099-4.312 1.063-7.125l-.028-2.758L572 504l-7-2-2-9c-4.622 0-7.915.882-12 3"/><path fill="#56b74c" d="m533 471 3 1c-6.75 4-6.75 4-9 4-1.573 2.842-1.573 2.842-2 6l2 1c-.557 3.617-1.729 4.941-4.562 7.188-5.527 4.61-10.44 9.816-14.438 15.812.5 7.242 8.257 14.13 13 19l3 2 1 3c2 1.209 2 1.209 4 2v2l-3 3v2l2.191.875q2.64 1.057 5.274 2.125l2.472 1 2.465 1 2.598 1 2.625 1.102c4.822 1.283 9.467 1.279 14.438 1.273l3.094.006c7.125-.095 12.951-.99 19.613-3.604L583 543l2 1a403 403 0 0 1-4 1.875l-2.25 1.055c-6.352 2.472-12.24 3.436-19 3.383l-2.239-.013c-6.478-.132-12.36-1.229-18.511-3.3l-2.64-.879c-5.916-2.168-11.525-5.033-16.36-9.121v-2l-4-2v-2l-3-1-.375-1.687c-.967-3.578-3.137-5.583-5.625-8.313l-2-1-.687 1.688c-1.72 3.028-3.64 5.085-6.313 7.312-2.312-.187-2.312-.187-4-1l2.813-1.812c4.755-3.22 4.755-3.22 7.187-8.188l-3-1-1-6h-2v-5h2l.188-2c1.565-5.782 5.193-11.177 9.812-15h2l.813-1.82c3.928-7.211 13.1-11.637 20.187-15.18"/><path fill="#61c152" d="M556.18 466.8c10.272-.363 19.385 2.292 28.82 6.2l-2 3-2.312-.625c-2.907-.709-2.907-.709-5.688 1.625-1.988-.023-1.988-.023-4.312-.375-15.33-1.775-28.75-.529-41.688 8.375h-2v-2l-4-2c3.144-4.527 6.16-6.58 11-9h2v-2c6.527-2.909 13.144-2.758 20.18-3.2"/><path fill="#53b749" d="M511 518c3.83.578 5.85 2.314 8.688 4.875l2.386 2.117C524 527 524 527 525 530c2 1.209 2 1.209 4 2v2l-3 3v2l2.191.875q2.64 1.057 5.274 2.125l2.472 1 2.465 1 2.598 1 2.625 1.102c4.822 1.283 9.467 1.279 14.438 1.273l3.094.006c7.125-.095 12.951-.99 19.613-3.604L583 543l2 1a403 403 0 0 1-4 1.875l-2.25 1.055c-6.352 2.472-12.24 3.436-19 3.383l-2.239-.013c-6.478-.132-12.36-1.229-18.511-3.3l-2.64-.879c-5.916-2.168-11.525-5.033-16.36-9.121v-2l-4-2v-2l-3-1a140 140 0 0 1-1-4c-1.479-1.73-1.479-1.73-3-3z"/><path fill="#2c2b2b" d="m401.383 417.805 2.742.07 2.758.055L409 418c2.298 4.595 1.246 11.172 0 16h-2l-.238 1.832c-1.02 2.902-2.266 3.43-4.95 4.856l-2.292 1.261c-5.472 2.282-11.138 2.189-16.98 2.149l-2.397-.005c-2.506-.005-5.012-.018-7.518-.03q-2.56-.009-5.121-.014-6.252-.017-12.504-.049l-2 8h-2l2-10 3.637-.044c4.48-.058 8.96-.136 13.44-.218q2.901-.051 5.802-.084c2.791-.034 5.58-.087 8.371-.142l2.593-.02c6.674-.16 12.736-1.01 17.594-5.992 2.313-3.7 2.681-6.414 2.625-10.687L407 420h-10c2-2 2-2 4.383-2.195"/><path fill="#4dae46" d="m533 471 3 1c-6.75 4-6.75 4-9 4l-.875 1.813c-1.495 2.906-2.595 4.87-5.437 6.57-3.05 1.834-5.21 3.944-7.688 6.492l-2.5 2.555L508 496l-2.766 2.668c-2.513 2.624-2.888 3.786-3.234 7.332l-.562 3.313L501 512h2l1 5-3-1-1-6h-2v-5h2l.188-2c1.565-5.782 5.193-11.177 9.812-15h2l.813-1.82c3.928-7.211 13.1-11.637 20.187-15.18"/><path fill="#132714" d="M684 575h2l-.48 2.066c-1.207 6.813-1.754 14.181 1.105 20.559L689 600l2.375 2.375c6.645 2.979 14.97 2.77 21.938.625 7.609-3.462 13.246-10.124 17.687-17l1 2c-.937 2.125-.937 2.125-2 4h-2l-.75 2.313c-1.371 2.948-2.485 4.045-5.25 5.687h-2v2q-1.871.975-3.75 1.938l-2.11 1.09c-4.062 1.845-7.625 2.131-12.077 2.16l-3.09.042c-5.426-.42-8.993-2.591-12.973-6.23v-2h-2a37.76 37.76 0 0 1 0-24"/><path fill="#213821" d="M688 472c-.964 10.558-.964 10.558-2 15h-2l-.437 3.75c-.35 2.815-.767 5.52-1.563 8.25h-2c1.602-8.767 3.795-17.37 6-26q-3.906-.04-7.812-.062l-2.237-.026c-3.25-.015-5.845.053-8.951 1.088-1.527 3.504-2.228 7.078-2.937 10.813-2.409 12.533-2.409 12.533-6.063 16.187a438 438 0 0 1 2-13h2l.113-2.012c.673-9.032.673-9.032 3.887-12.988 6.614-4.41 14.814-3.804 22-1"/><path fill="#292929" d="M338 494h1c-.499 5.369-1.022 10.692-2 16h-2c-.09 1.195-.09 1.195-.184 2.414-.832 10.524-.832 10.524-1.816 15.586h-2l.07 1.688c.13 5.483-.034 10.177-2.07 15.312-5.8 4.125-13.11 3.717-20 3l-3-2c1.645-.09 1.645-.09 3.324-.184l4.363-.254 2.186-.119c3.794-.225 7.414-.571 11.127-1.443l.48-3.2c2.463-15.831 6.085-31.403 10.52-46.8"/><path fill="#141b17" d="M605 576h2l-.48 2.168c-1.306 7.115-1.276 13.558 2.02 20.078 3.128 3.756 6.247 5.588 11.081 6.25 10.974-.168 18.049-1.933 26.379-9.496 1.875-2.256 3.414-4.521 5-7l1 3-2 3h-2l-.625 1.688c-3.559 5.985-9.05 8.457-15.441 10.582-7.712 1.92-14.04 1.275-21.157-2.2C609 603 609 603 607 601v-3h-2c-1.235-3.704-1.146-7.144-1.125-11l-.012-2.195c.006-3.198.119-5.75 1.137-8.805"/><path fill="#153217" d="M598.738 479.09c2.206 1.897 4.326 3.739 6.262 5.91v2l3 1c3.062 3.35 5.235 6.82 7 11l-1 2-1.062-2c-10.117-15.664-25.22-26.471-43.399-30.578-8.128-.969-16.37-.646-24.539-.422v-1c19.126-3.003 37.997.076 53.738 12.09"/><path fill="#1d3b19" d="m516 531 1.293 1.066c12.367 9.767 25.22 15.53 41.02 15.371l3.04-.007c7.026-.128 12.847-1.075 19.417-3.653L583 543l2 1a403 403 0 0 1-4 1.875l-2.25 1.055c-6.352 2.472-12.24 3.436-19 3.383l-2.239-.013c-6.478-.132-12.36-1.229-18.511-3.3l-2.64-.879c-5.916-2.168-11.525-5.033-16.36-9.121v-2l-4-2z"/><path fill="#f3f8f4" d="M566 491c6.462.462 6.462.462 9 3 .36 2.81.383 4.382-1.125 6.813-2.71 1.715-4.738 1.52-7.875 1.187-2-2-2-2-2.25-5.5.25-3.5.25-3.5 2.25-5.5"/><path fill="#1c331c" d="M749 471q3.938-.04 7.875-.062l2.262-.026c5.636-.025 5.636-.025 7.863 1.088.293 5.694-.704 10.22-2.437 15.625q-.69 2.206-1.372 4.414c-.21.682-.422 1.365-.64 2.067-.662 2.275-1.15 4.56-1.551 6.894h-2l-.184 2.012c-.832 8.77-.832 8.77-1.816 12.988h-2c.766-9.386 3.504-18.462 6.41-27.387l.706-2.177q.683-2.084 1.397-4.157c1.25-3.79 1.49-5.27.487-9.279l-15-1z"/><path fill="#1b341d" d="M647 473c.594 4.953-.354 8.618-2.246 13.105-.773 1.943-1.289 3.859-1.754 5.895h-2l-2 10h-2c1.787-6.877 3.824-13.587 6.23-20.273.773-2.738.995-4.9.77-7.727-1.93-1.93-5.247-1.262-7.812-1.312l-3.77-.114c-3.982.496-4.97 1.351-7.418 4.426l-2 2c.25-2.875.25-2.875 1-6 5.935-4.616 17.005-3.997 23 0"/><path fill="#1a1818" d="M387 466h2l2 8 2.307.06c3.46.095 6.92.205 10.38.315 1.199.03 2.397.062 3.631.094l3.506.117 3.222.095c3.022.326 5.252.937 7.954 2.319.813 2.125.813 2.125 1 4l-1.79-1.465c-4.766-2.279-9.363-2.028-14.585-2.098-6.551-.112-12.407-.256-18.625-2.437z"/><path fill="#152f19" d="M780 509h3v2h2v9h-2l-2 6h-2l-2 5h-2l-2 4h-2l-1 3c-1.875 1.75-1.875 1.75-4 3l-3-1 2.414-2.09c11.436-9.597 11.436-9.597 16.774-22.847.059-3.237.059-3.237-2.188-6.063"/><path fill="#213f21" d="m613 519 .043 2.781c.35 9.027 1.528 14.79 7.957 21.219 2.734.306 5.383.511 8.125.625l2.285.117c1.863.095 3.726.177 5.59.258-2.563 2.563-3.631 2.298-7.187 2.313-5.062-.1-8.46-.72-12.813-3.313-1.437-2.187-1.437-2.187-2-4h-2c-1.44-4.318-1.386-8.637-1.621-13.164L611 523l-2-1c2.875-3 2.875-3 4-3"/><path fill="#366431" d="m704 555 2 1c-5.189 6.648-11.417 11.772-18 17l-2 2c.428-4.845 2.55-7.766 6-11 3.921-3.114 7.932-6.08 12-9"/><path fill="#131c12" d="m747 472 2 1-1.414 1.242c-1.795 1.99-2.27 3.31-2.961 5.883l-.746 2.645q-.718 2.638-1.434 5.278c-.617 2.258-1.25 4.511-1.883 6.764l-.585 2.21c-1.258 4.466-2.758 7.499-5.977 10.978l2-9h2l.438-3.562.289-2.231c.23-1.857.413-3.72.586-5.582.907-4.784 2.4-9.313 4.687-13.625z"/><path fill="#212121" d="M308 511h2q-.68 3.814-1.375 7.625l-.383 2.16c-.595 3.247-1.254 6.249-2.332 9.38-.97 3.021-1.146 5.422-1.098 8.585l.02 2.86c.015 2.405.015 2.405 1.168 4.39h-3c-2.985-5.97-.496-14.821 1-21q.99-2.505 2-5c.41-1.595.788-3.2 1.125-4.812l.508-2.395z"/><path fill="#1e421c" d="m510 488 2 1-1.934 2.45q-1.253 1.618-2.503 3.238l-1.276 1.607c-2.465 3.215-3.85 5.67-4.287 9.705l-.562 3.313L501 512h2l1 5-3-1-1-6h-2v-5h2l.188-2c1.602-5.916 5.252-10.947 9.812-15"/><path fill="#183019" d="m651 588 1 3-2 3h-2l-.625 1.688c-2.673 4.495-7.26 7.867-12.098 9.82-5.31 1.148-10.877.694-16.277.492v-1l3.113-.156c9.878-.72 16.57-2.67 23.887-9.844 1.944-2.273 3.447-4.43 5-7"/><path fill="#20351f" d="M671.188 471.375 673 472l-2.875.625c-3.297 1.054-3.297 1.054-4.375 3.875-.776 3.623-1.484 7.256-2.184 10.895-2.233 10.272-2.233 10.272-5.566 13.605a438 438 0 0 1 2-13h2l.113-2.012c.673-9.032.673-9.032 3.887-12.988 3-2 3-2 5.188-1.625"/><path fill="#244321" d="M731 531c1.256 2.069 2.038 3.425 1.875 5.875-2.56 6.219-5.94 9.139-11.656 12.34-2.545.9-3.721.699-6.219-.215l2.59-1.172 3.347-1.578c1.103-.51 2.205-1.02 3.34-1.547 2.86-1.416 2.86-1.416 3.602-3.906L728 539h2v-4l-2-1z"/><path fill="#2c2c2c" d="M381 519h1l.043 3.035c.226 7.615.394 13.276 5.957 18.965 2.646 2.37 2.646 2.37 5 4-4.025-.62-6.826-2.516-10-5-1.916-3.397-2.22-6.135-2-10h-2v-6h2z"/><path fill="#325d2e" d="M564 500q2.22.463 4.438.938l2.496.527C573 502 573 502 574 503c.205 2.098.314 4.206.375 6.313l.148 3.488C574 516 574 516 571.477 518.418L569 520l-2-1 2-3h2v-12l-7-2z"/><path fill="#232322" d="M317 481c1.345 4.036.249 7.128-.75 11.125l-.56 2.308c-1.306 5.291-2.827 10.443-4.69 15.567h-1c.525-5.03 1.106-10.019 2-15h2l.148-2.047.227-2.703c.07-.882.14-1.763.21-2.672.414-2.569 1.127-4.336 2.415-6.578"/><path fill="#132215" d="m533 471 3 1-2.238 1.215C526.108 477.504 519.634 482.24 513 488c0-3 0-3 1.398-4.613 5.738-4.933 11.827-9 18.602-12.387"/><path fill="#225020" d="m604 528 1 2c-4.86 5.163-10.405 10.2-17 13h-3v-3l2.938-.562c6.388-1.796 11.535-6.753 16.062-11.438"/><path fill="#31692c" d="m767 518 2 1c-1.309 3.927-2.708 6.44-6 9-3.25.75-3.25.75-6 1 1.389-3.356 2.917-5.073 6-7h2z"/><path fill="#595959" d="M497 486c1.6 4.002.293 7.046-1 11h-2l-.184 1.828-.253 2.422-.247 2.39c-.292 2.184-.737 4.237-1.316 6.36h-2c.257-2.064.531-4.126.813-6.187l.457-3.481c.741-3.384 1.844-5.464 3.73-8.332.711-1.985 1.39-3.982 2-6"/><path fill="#606060" d="m438 473 2 1-2 3c-.564 2.236-.564 2.236-.937 4.688-.867 4.718-2.255 8.874-4.063 13.312-1.073-3.272-.893-5.43-.062-8.75.291-1.199.291-1.199.59-2.422L434 482h2l-.125-2.812C436 476 436 476 438 473"/><path fill="#555455" d="M430 495h2c-.762 14.049-.762 14.049-4 20l-3 1 1-4h2l-.125-2.875c-.02-4.832 1.067-9.431 2.125-14.125"/><path fill="#42913f" d="m712 565 4 1-2.187 1.625c-3.06 2.584-5.325 5.247-7.813 8.375l-2-1c1.074-2.915 1.778-4.778 4-7h3z"/><path fill="#373637" d="m374.16 461.902 3.902.036 3.91.027L385 462l2 4-1.664-.965c-4.306-1.908-8.752-1.941-13.336-1.035-2.6 1.986-4.314 4.211-6 7l-1-3c6-6 6-6 9.16-6.098"/><path fill="#162315" d="m706 472 2 1-3 2c-.955 1.905-.955 1.905-1.605 4.133l-.791 2.441-.792 2.551-.826 2.574A746 746 0 0 0 699 493c-.938-3.334-.908-5.369-.062-8.75.291-1.199.291-1.199.59-2.422L700 480h2l.313-2.875C703 474 703 474 706 472"/><path fill="#626362" d="M395 476c4.292-.058 8.583-.094 12.875-.125l3.707-.05 3.535-.02 3.27-.032C421 476 421 476 423 478l-1 3-1.661-1.468c-2.797-1.832-4.442-1.952-7.76-2.044l-3.106-.107-3.223-.068-3.27-.104A850 850 0 0 0 395 477z"/><path fill="#323232" d="m290 459 6 1v2l2 1h-2l-.187 2.563c-.994 4.205-2.835 7.3-5.813 10.437h-2c1.167-2.528 2.453-4.645 4.063-6.937 1.817-2.873 2.546-4.736 2.937-8.063l-5-1z"/><path fill="#244621" d="M640 568h1v7h-2v2h-2l-.75 2.25c-1.341 2.951-2.86 4.598-5.25 6.75 1.407-4.093 3.504-7.449 5.824-11.062 1.35-2.225 2.33-4.479 3.176-6.938"/><path fill="#141d16" d="m516 531 1.469 1.137A158 158 0 0 0 532 542l-3 1c-2.262-1.145-2.262-1.145-4.687-2.812l-2.45-1.645L520 537v-2l-4-2z"/><path fill="#182718" d="m617 561 2 1-1.39 1.285c-4.134 3.95-7.012 7.622-9.61 12.715-.668-1.746-.668-1.746-1-4 1.074-2.035 1.074-2.035 2.688-4.062l1.574-2.036c1.766-1.933 3.596-3.404 5.738-4.902"/><path fill="#386932" d="M651 532h1q.079 2.687.125 5.375l.07 3.023C652 543 652 543 650 545c-2.125-.375-2.125-.375-4-1l1.938-.625c2.411-1.27 2.411-1.27 2.812-4.5L651 536l-2-1z"/><path fill="#3e3e3e" d="M338 494h1c-.499 5.369-1.022 10.692-2 16h-2l-1 2c.688-6.192 2.28-12.02 4-18"/><path fill="#1f4020" d="M603 486c5.767 1.762 7.912 5.086 10.813 10.188L615 499l-1 2-1.062-2c-2.189-3.389-4.71-6.247-7.415-9.23C604 488 604 488 603 486"/><path fill="#224720" d="m728 516 2 1c-1.362 5.295-4.603 7.237-9 10l-2-1a141 141 0 0 1 5-5h2z"/><path fill="#282929" d="M507 535h2c-1.518 4.554-4.978 6.568-9 9-3.5.875-3.5.875-6 1q3.05-2.29 6.105-4.57l2.082-1.555 2.106-1.57c1.641-1.195 1.641-1.195 2.707-2.305"/><path fill="#3f8539" d="M731 531c1.308 2.154 2.051 3.453 1.813 6-.947 2.329-2.222 4.064-3.813 6l1-8-2-1z"/><path fill="#162216" d="M671.313 471.25 673 472l-2.812.438c-3.281 1.208-3.281 1.208-4.254 3.699A85 85 0 0 0 664 483h-1c.365-7.296.365-7.296 3.313-10.562C669 471 669 471 671.313 471.25"/><path fill="#6cc461" d="M548 476c-3.216 2.144-5.19 2.676-9 3l-2-2c4.18-2.786 6.147-1.796 11-1"/><path fill="#d2d2d3" d="M271 430h2c-1.285 2.867-2.571 4.976-5 7h-2l-1 3-1-2a564 564 0 0 1 3.375-4l1.898-2.25z"/><path fill="#46953b" d="M609 522c-.187 2.375-.187 2.375-1 5-2.562 1.313-2.562 1.313-5 2 .628-3.645 1.853-7 6-7"/><path fill="#1c2d1e" d="M595 479c2.71.155 4.466.482 6.445 2.402 1.232 1.496 2.398 3.044 3.555 4.598-4.387-.506-6.844-3.13-10-6z"/><path fill="#396f37" d="m704 555 2 1-5 6-3-2z"/><path fill="#6dd066" d="M687 577c1.467 3.815.433 6.29-1 10h-1c-.195-6.055-.195-6.055 0-8z"/><path fill="#71d265" d="M567 490c3.375-.187 3.375-.187 7 0 2.152 3.228 2.2 4.284 2 8l-.562-1.812c-2.16-3.288-4.79-3.837-8.438-5.188z"/><path fill="#162517" d="m604 528 1 2c-5.143 5.571-5.143 5.571-9 6z"/><path fill="#1c2e19" d="m738 498 1 2c-.777 1.945-.777 1.945-1.937 4.125l-1.153 2.195L735 508c-1.263-3.79-.497-5.375 1-9z"/><path fill="#2a6428" d="m545 468-1 3h-8c4.5-3 4.5-3 9-3"/><path fill="#2d612c" d="M706 570h4c0 2 0 2-2 4.125L706 576l-2-1z"/><path fill="#0e2913" d="M771 535c-1.135 3.404-1.968 4.217-5 6l-3-1c5.75-5 5.75-5 8-5"/><path fill="#3f3f3f" d="M330 530h1c.37 6.523.37 6.523-1.5 8.938L328 540c.875-7.75.875-7.75 2-10"/><path fill="#7dd171" d="m601 520 3 1-6 5-2-1z"/><path fill="#1d411c" d="M617 493h2l-1 10h-3z"/></svg>